# xmcd CD database file
#
# Track frame offsets:
#	150
#	14606
#	41869
#	72761
#	98033
#	133709
#	164947
#	205049
#	232197
#	253808
#
# Disc length: 3753 seconds
#
# Revision: 2
# Processed by: cddbd v1.5.2PL0 Copyright (c) Steve Scherf et al.
# Submitted via: CDex 1.51
#
DISCID=960ea70a
DTITLE=Tony Westlake - Listen To Your Heart
DYEAR=2012
DGENRE=Jazz
TTITLE0=01 - Listen to Your Heart (solo)
TTITLE1=02 - One Step at a Time
TTITLE2=03 - Crosscurrents
TTITLE3=04 - One for Mally
TTITLE4=05 - One for Elisabeth
TTITLE5=06 - Lizzies Night Out
TTITLE6=07 - Pisch for Misch
TTITLE7=08 - Maybe
TTITLE8=09 - First Steps
TTITLE9=10 - Listen to Your Heart (trio)
EXTD=YEAR: 2012
EXTT0=
EXTT1=
EXTT2=
EXTT3=
EXTT4=
EXTT5=
EXTT6=
EXTT7=
EXTT8=
EXTT9=
PLAYORDER=
